<svg xmlns="http://www.w3.org/2000/svg" viewBox="0 0 32 32" fill="none" role="img" aria-label="BizGrant">
  <defs>
    <linearGradient id="brand" x1="4" y1="2" x2="28" y2="30" gradientUnits="userSpaceOnUse">
      <stop stop-color="#6366f1"/>
      <stop offset="1" stop-color="#a855f7"/>
    </linearGradient>
    <linearGradient id="grant" x1="18" y1="18" x2="28" y2="28" gradientUnits="userSpaceOnUse">
      <stop stop-color="#fbbf24"/>
      <stop offset="1" stop-color="#f59e0b"/>
    </linearGradient>
  </defs>
  <rect width="32" height="32" rx="8" fill="url(#brand)"/>
  <path fill="#fff" d="M8.5 7.5h10a1 1 0 0 1 .7.3l3.8 3.8a1 1 0 0 1 .3.7V24a1.5 1.5 0 0 1-1.5 1.5H8.5A1.5 1.5 0 0 1 7 24V9a1.5 1.5 0 0 1 1.5-1.5Z"/>
  <path fill="#e0e7ff" d="M18.5 7.5V12h4.5"/>
  <path stroke="#6366f1" stroke-linecap="round" stroke-width="1.5" d="M10.5 14.5h7.5M10.5 17.5h5.5" opacity=".5"/>
  <circle cx="23.5" cy="23.5" r="5.25" fill="url(#grant)"/>
  <path stroke="#fff" stroke-linecap="round" stroke-linejoin="round" stroke-width="1.7" d="m21.4 23.5 1.5 1.5 3.4-3.8"/>
</svg>
